simulation
nRows=43
nColumns=15
endheader
time  TH_x TH_y TH_z SC_y  SC_z  SC_x  AC_y  AC_z  AC_x  GH_y  GH_z  GH_yy  EL_x  PS_y
0.500150  0.000000  0.000000  0.000000  -30.805704  -0.050313  3.585717  51.008895  7.898293  1.005695  23.090483  36.833166  -28.822433  23.143829  119.074275
0.500449  0.000000  0.000000  0.000000  -30.805704  -0.050313  6.919050  51.251019  5.302761  -1.099938  23.090483  36.833166  -28.822433  23.143829  119.074275
0.500748  0.000000  0.000000  0.000000  -30.805704  -0.050313  10.252384  51.396775  2.700168  -3.187906  23.090483  36.833166  -28.822433  23.143829  119.074275
0.501048  0.000000  0.000000  0.000000  -30.805704  -0.050313  13.585717  51.447484  0.094011  -5.266937  23.090483  36.833166  -28.822433  23.143829  119.074275
0.501347  0.000000  0.000000  0.000000  -30.805704  -0.050313  16.919050  51.403603  -2.512270  -7.345658  23.090483  36.833166  -28.822433  23.143829  119.074275
0.501646  0.000000  0.000000  0.000000  -30.805704  -0.050313  20.252384  51.264736  -5.115236  -9.432692  23.090483  36.833166  -28.822433  23.143829  119.074275
0.501946  0.000000  0.000000  0.000000  -33.676631  -0.618114  15.215474  52.570288  3.535382  -7.238302  28.743775  39.081912  -27.075817  11.165353  119.375608
0.502245  0.000000  0.000000  0.000000  -33.676631  -0.618114  0.215474  51.018491  15.349168  2.150064  28.743775  39.081912  -27.075817  11.165353  119.375608
0.502544  0.000000  0.000000  0.000000  -33.676631  -0.618114  3.548807  51.540389  12.748167  0.000878  28.743775  39.081912  -27.075817  11.165353  119.375608
0.502843  0.000000  0.000000  0.000000  -33.676631  -0.618114  6.882140  51.958087  10.130171  -2.104449  28.743775  39.081912  -27.075817  11.165353  119.375608
0.503143  0.000000  0.000000  0.000000  -33.676631  -0.618114  10.215474  52.275579  7.499000  -4.175578  28.743775  39.081912  -27.075817  11.165353  119.375608
0.503442  0.000000  0.000000  0.000000  -33.676631  -0.618114  13.548807  52.495888  4.858258  -6.221760  28.743775  39.081912  -27.075817  11.165353  119.375608
0.503741  0.000000  0.000000  0.000000  -33.676631  -0.618114  16.882140  52.621106  2.211399  -8.251946  28.743775  39.081912  -27.075817  11.165353  119.375608
0.504041  0.000000  0.000000  0.000000  -33.676631  -0.618114  20.215474  52.652420  -0.438223  -10.274895  28.743775  39.081912  -27.075817  11.165353  119.375608
0.504340  0.000000  0.000000  0.000000  -33.676631  -0.618114  23.548807  52.590124  -3.087299  -12.299275  28.743775  39.081912  -27.075817  11.165353  119.375608
0.504639  0.000000  0.000000  0.000000  -33.676631  -0.618114  26.882140  52.433631  -5.732510  -14.333776  28.743775  39.081912  -27.075817  11.165353  119.375608
0.504939  0.000000  0.000000  0.000000  -33.676631  -0.618114  30.215474  52.181456  -8.370474  -16.387205  28.743775  39.081912  -27.075817  11.165353  119.375608
0.505238  0.000000  0.000000  0.000000  -21.927591  -6.829477  23.312518  72.307175  5.145708  -14.193199  19.833869  41.419923  -15.423880  19.551084  125.283625
0.505537  0.000000  0.000000  0.000000  -21.927591  -6.829477  8.312518  71.281678  19.403323  -9.409448  19.833869  41.419923  -15.423880  19.551084  125.283625
0.505837  0.000000  0.000000  0.000000  -21.927591  -6.829477  11.645852  71.622680  16.243024  -10.523083  19.833869  41.419923  -15.423880  19.551084  125.283625
0.506136  0.000000  0.000000  0.000000  -21.927591  -6.829477  14.979185  71.895703  13.077096  -11.601429  19.833869  41.419923  -15.423880  19.551084  125.283625
0.506435  0.000000  0.000000  0.000000  -21.927591  -6.829477  18.312518  72.105174  9.906809  -12.652400  19.833869  41.419923  -15.423880  19.551084  125.283625
0.506735  0.000000  0.000000  0.000000  -21.927591  -6.829477  21.645852  72.254398  6.733318  -13.683223  19.833869  41.419923  -15.423880  19.551084  125.283625
0.507034  0.000000  0.000000  0.000000  -21.927591  -6.829477  24.979185  72.345683  3.557695  -14.700635  19.833869  41.419923  -15.423880  19.551084  125.283625
0.507333  0.000000  0.000000  0.000000  -21.927591  -6.829477  28.312518  72.380419  0.380961  -15.711051  19.833869  41.419923  -15.423880  19.551084  125.283625
0.507632  0.000000  0.000000  0.000000  -21.927591  -6.829477  31.645852  72.359134  -2.795891  -16.720721  19.833869  41.419923  -15.423880  19.551084  125.283625
0.507932  0.000000  0.000000  0.000000  -21.927591  -6.829477  34.979185  72.281505  -5.971872  -17.735879  19.833869  41.419923  -15.423880  19.551084  125.283625
0.508231  0.000000  0.000000  0.000000  -21.927591  -6.829477  38.312518  72.146351  -9.145970  -18.762886  19.833869  41.419923  -15.423880  19.551084  125.283625
0.508530  0.000000  0.000000  0.000000  -28.711646  -3.774796  19.139585  60.879526  5.155111  -8.482187  23.134050  54.715835  -23.888163  14.131969  118.329967
0.508830  0.000000  0.000000  0.000000  -28.711646  -3.774796  4.139585  59.326781  18.178595  -0.864034  23.134050  54.715835  -23.888163  14.131969  118.329967
0.509129  0.000000  0.000000  0.000000  -28.711646  -3.774796  7.472918  59.834599  15.303882  -2.626304  23.134050  54.715835  -23.888163  14.131969  118.329967
0.509428  0.000000  0.000000  0.000000  -28.711646  -3.774796  10.806252  60.245436  12.415745  -4.340696  23.134050  54.715835  -23.888163  14.131969  118.329967
0.509728  0.000000  0.000000  0.000000  -28.711646  -3.774796  14.139585  60.564518  9.517075  -6.017362  23.134050  54.715835  -23.888163  14.131969  118.329967
0.510027  0.000000  0.000000  0.000000  -28.711646  -3.774796  17.472918  60.795839  6.610540  -7.665767  23.134050  54.715835  -23.888163  14.131969  118.329967
0.510326  0.000000  0.000000  0.000000  -28.711646  -3.774796  20.806252  60.942260  3.698645  -9.294872  23.134050  54.715835  -23.888163  14.131969  118.329967
0.510626  0.000000  0.000000  0.000000  -28.711646  -3.774796  24.139585  61.005576  0.783788  -10.913295  23.134050  54.715835  -23.888163  14.131969  118.329967
0.510925  0.000000  0.000000  0.000000  -28.711646  -3.774796  27.472918  60.986559  -2.131694  -12.529465  23.134050  54.715835  -23.888163  14.131969  118.329967
0.511224  0.000000  0.000000  0.000000  -28.711646  -3.774796  30.806252  60.884976  -5.045474  -14.151771  23.134050  54.715835  -23.888163  14.131969  118.329967
0.511523  0.000000  0.000000  0.000000  -28.711646  -3.774796  34.139585  60.699588  -7.955195  -15.788711  23.134050  54.715835  -23.888163  14.131969  118.329967
0.511823  0.000000  0.000000  0.000000  -41.441073  6.300300  21.650482  55.438178  8.002554  0.373325  36.082624  45.088172  -17.416185  16.305249  116.042451
0.512122  0.000000  0.000000  0.000000  -41.441073  6.300300  6.650482  53.227110  20.214713  9.375056  36.082624  45.088172  -17.416185  16.305249  116.042451
0.512421  0.000000  0.000000  0.000000  -41.441073  6.300300  9.983815  53.904082  17.532609  7.283074  36.082624  45.088172  -17.416185  16.305249  116.042451
0.512721  0.000000  0.000000  0.000000  -41.441073  6.300300  13.317149  54.470202  14.829206  5.252337  36.082624  45.088172  -17.416185  16.305249  116.042451
